<mxfile host="app.diagrams.net" modified="2022-01-10T08:50:20.088Z" agent="5.0 (Windows NT 10.0; Win64; x64) AppleWebKit/537.36 (KHTML, like Gecko) Chrome/97.0.4692.71 Safari/537.36" etag="-ehKuQZC7jaeubud4NTc" version="16.2.4" type="github">
  <diagram id="h6UMseHvpC1791EccmNr" name="Page-1">
    <mxGraphModel dx="868" dy="403" grid="1" gridSize="10" guides="1" tooltips="1" connect="1" arrows="1" fold="1" page="1" pageScale="1" pageWidth="850" pageHeight="1100" math="0" shadow="0">
      <root>
        <mxCell id="0" />
        <mxCell id="1" parent="0" />
        <mxCell id="eMPriT1mVHPUP7VK3qdF-8" style="edgeStyle=orthogonalEdgeStyle;rounded=0;orthogonalLoop=1;jettySize=auto;html=1;exitX=1;exitY=0.5;exitDx=0;exitDy=0;entryX=0;entryY=0.5;entryDx=0;entryDy=0;" edge="1" parent="1" source="eMPriT1mVHPUP7VK3qdF-1" target="eMPriT1mVHPUP7VK3qdF-2">
          <mxGeometry relative="1" as="geometry" />
        </mxCell>
        <mxCell id="eMPriT1mVHPUP7VK3qdF-1" value="Input Image" style="shape=parallelogram;perimeter=parallelogramPerimeter;whiteSpace=wrap;html=1;fixedSize=1;fillColor=#ffe6cc;strokeColor=#d79b00;" vertex="1" parent="1">
          <mxGeometry x="140" y="100" width="120" height="60" as="geometry" />
        </mxCell>
        <mxCell id="eMPriT1mVHPUP7VK3qdF-9" style="edgeStyle=orthogonalEdgeStyle;rounded=0;orthogonalLoop=1;jettySize=auto;html=1;exitX=1;exitY=0.5;exitDx=0;exitDy=0;entryX=0;entryY=0.5;entryDx=0;entryDy=0;" edge="1" parent="1" source="eMPriT1mVHPUP7VK3qdF-2" target="eMPriT1mVHPUP7VK3qdF-3">
          <mxGeometry relative="1" as="geometry" />
        </mxCell>
        <mxCell id="eMPriT1mVHPUP7VK3qdF-2" value="Resample to 48 x 48" style="rounded=0;whiteSpace=wrap;html=1;fillColor=#ffe6cc;strokeColor=#d79b00;" vertex="1" parent="1">
          <mxGeometry x="280" y="100" width="120" height="60" as="geometry" />
        </mxCell>
        <mxCell id="eMPriT1mVHPUP7VK3qdF-10" style="edgeStyle=orthogonalEdgeStyle;rounded=0;orthogonalLoop=1;jettySize=auto;html=1;exitX=1;exitY=0.5;exitDx=0;exitDy=0;entryX=0;entryY=0.5;entryDx=0;entryDy=0;" edge="1" parent="1" source="eMPriT1mVHPUP7VK3qdF-3" target="eMPriT1mVHPUP7VK3qdF-4">
          <mxGeometry relative="1" as="geometry" />
        </mxCell>
        <mxCell id="eMPriT1mVHPUP7VK3qdF-3" value="Preprocessing" style="rounded=0;whiteSpace=wrap;html=1;fillColor=#ffe6cc;strokeColor=#d79b00;" vertex="1" parent="1">
          <mxGeometry x="425" y="100" width="120" height="60" as="geometry" />
        </mxCell>
        <mxCell id="eMPriT1mVHPUP7VK3qdF-11" style="edgeStyle=orthogonalEdgeStyle;rounded=0;orthogonalLoop=1;jettySize=auto;html=1;exitX=0.5;exitY=1;exitDx=0;exitDy=0;entryX=0.5;entryY=0;entryDx=0;entryDy=0;" edge="1" parent="1" source="eMPriT1mVHPUP7VK3qdF-4" target="eMPriT1mVHPUP7VK3qdF-5">
          <mxGeometry relative="1" as="geometry" />
        </mxCell>
        <mxCell id="eMPriT1mVHPUP7VK3qdF-4" value="Conv. layer 1-5" style="rounded=0;whiteSpace=wrap;html=1;fillColor=#ffe6cc;strokeColor=#d79b00;" vertex="1" parent="1">
          <mxGeometry x="580" y="100" width="120" height="60" as="geometry" />
        </mxCell>
        <mxCell id="eMPriT1mVHPUP7VK3qdF-12" style="edgeStyle=orthogonalEdgeStyle;rounded=0;orthogonalLoop=1;jettySize=auto;html=1;exitX=0;exitY=0.5;exitDx=0;exitDy=0;entryX=1;entryY=0.5;entryDx=0;entryDy=0;" edge="1" parent="1" source="eMPriT1mVHPUP7VK3qdF-5" target="eMPriT1mVHPUP7VK3qdF-6">
          <mxGeometry relative="1" as="geometry" />
        </mxCell>
        <mxCell id="eMPriT1mVHPUP7VK3qdF-5" value="Fully Connected Layer (128 units)" style="rounded=0;whiteSpace=wrap;html=1;fillColor=#ffe6cc;strokeColor=#d79b00;" vertex="1" parent="1">
          <mxGeometry x="580" y="200" width="120" height="60" as="geometry" />
        </mxCell>
        <mxCell id="eMPriT1mVHPUP7VK3qdF-13" style="edgeStyle=orthogonalEdgeStyle;rounded=0;orthogonalLoop=1;jettySize=auto;html=1;exitX=0;exitY=0.5;exitDx=0;exitDy=0;entryX=1;entryY=0.5;entryDx=0;entryDy=0;" edge="1" parent="1" source="eMPriT1mVHPUP7VK3qdF-6" target="eMPriT1mVHPUP7VK3qdF-7">
          <mxGeometry relative="1" as="geometry" />
        </mxCell>
        <mxCell id="eMPriT1mVHPUP7VK3qdF-6" value="Fully Connected layer (2 units)" style="rounded=0;whiteSpace=wrap;html=1;fillColor=#ffe6cc;strokeColor=#d79b00;" vertex="1" parent="1">
          <mxGeometry x="425" y="200" width="120" height="60" as="geometry" />
        </mxCell>
        <mxCell id="eMPriT1mVHPUP7VK3qdF-7" value="Softmax layer" style="rounded=0;whiteSpace=wrap;html=1;fillColor=#ffe6cc;strokeColor=#d79b00;" vertex="1" parent="1">
          <mxGeometry x="280" y="200" width="120" height="60" as="geometry" />
        </mxCell>
        <mxCell id="eMPriT1mVHPUP7VK3qdF-14" value="" style="endArrow=none;html=1;rounded=0;" edge="1" parent="1">
          <mxGeometry width="50" height="50" relative="1" as="geometry">
            <mxPoint x="230" y="230" as="sourcePoint" />
            <mxPoint x="280" y="230" as="targetPoint" />
          </mxGeometry>
        </mxCell>
        <mxCell id="eMPriT1mVHPUP7VK3qdF-17" value="" style="endArrow=none;html=1;rounded=0;" edge="1" parent="1">
          <mxGeometry width="50" height="50" relative="1" as="geometry">
            <mxPoint x="230" y="254" as="sourcePoint" />
            <mxPoint x="230" y="204" as="targetPoint" />
          </mxGeometry>
        </mxCell>
        <mxCell id="eMPriT1mVHPUP7VK3qdF-18" value="" style="endArrow=classic;html=1;rounded=0;" edge="1" parent="1">
          <mxGeometry width="50" height="50" relative="1" as="geometry">
            <mxPoint x="230" y="204" as="sourcePoint" />
            <mxPoint x="170" y="204" as="targetPoint" />
          </mxGeometry>
        </mxCell>
        <mxCell id="eMPriT1mVHPUP7VK3qdF-19" value="" style="endArrow=classic;html=1;rounded=0;" edge="1" parent="1">
          <mxGeometry width="50" height="50" relative="1" as="geometry">
            <mxPoint x="230" y="254" as="sourcePoint" />
            <mxPoint x="170" y="254" as="targetPoint" />
          </mxGeometry>
        </mxCell>
        <mxCell id="eMPriT1mVHPUP7VK3qdF-20" value="Positif" style="text;html=1;align=center;verticalAlign=middle;resizable=0;points=[];autosize=1;strokeColor=none;fillColor=none;" vertex="1" parent="1">
          <mxGeometry x="115" y="194" width="50" height="20" as="geometry" />
        </mxCell>
        <mxCell id="eMPriT1mVHPUP7VK3qdF-22" value="Negatif" style="text;html=1;align=center;verticalAlign=middle;resizable=0;points=[];autosize=1;strokeColor=none;fillColor=none;" vertex="1" parent="1">
          <mxGeometry x="115" y="244" width="50" height="20" as="geometry" />
        </mxCell>
      </root>
    </mxGraphModel>
  </diagram>
</mxfile>
